PathFileType	4	(X/Y/Z)	C:\Users\WrightLab\Desktop\Jo\P2_Trial25.trc
DataRate	CameraRate	NumFrames	NumMarkers	Units	OrigDataRate	OrigDataStartFrame	OrigNumFrames
100.00	100.00	       13	19	mm	100.00	265	       529
Frame#	Time	Headset_Front			Headset_Back			Headset_Left			Headset_Right			Left_Shoulder			Right_Shoulder			Sternum			C7			Left Elbow			Right Elbow			Left Wrist			Right Wrist			Left ASIS			Right ASIS			S2			Left Knee			Right Knee			Left Ankle			Right Ankle			
		X1	Y1	Z1	X2	Y2	Z2	X3	Y3	Z3	X4	Y4	Z4	X5	Y5	Z5	X6	Y6	Z6	X7	Y7	Z7	X8	Y8	Z8	X9	Y9	Z9	X10	Y10	Z10	X11	Y11	Z11	X12	Y12	Z12	X13	Y13	Z13	X14	Y14	Z14	X15	Y15	Z15	X16	Y16	Z16	X17	Y17	Z17	X18	Y18	Z18	X19	Y19	Z19	

265	2.640	-266.22299	1389.56958	569.07678	-387.69736	1604.10510	384.06934	-252.00270	1494.19849	386.97961	-390.35986	1473.90491	571.28430	-330.64362	1383.85620	274.41589	-521.76459	1351.98450	512.60461	-380.80728	1231.25415	411.54700	-524.26294	1368.53589	335.85092	-290.94220	1209.69617	31.69862	-677.58466	1060.45325	606.95166	-305.72168	1021.85626	135.83397	-700.96942	847.11975	729.37634	-350.02747	918.86316	358.97379	-462.29456	913.69568	438.72620	-569.86206	899.73846	183.27826	-218.61522	476.61566	399.86649	-792.11176	502.02335	301.89023	-158.94594	124.68032	415.20990	-936.14764	115.74784	138.97932	
266	2.650	-255.21114	1390.66333	579.72009	-376.24545	1605.90234	394.90515	-240.13132	1496.22656	399.18222	-380.13354	1474.68774	580.99030	-319.19550	1385.65674	284.13535	-510.10086	1354.19812	522.36432	-368.07361	1233.52161	422.37613	-512.64307	1370.78772	345.68155	-278.62518	1211.54163	41.92299	-664.82153	1062.02515	613.52783	-291.12381	1021.63916	143.30661	-695.69794	847.67938	732.31219	-339.55783	921.11523	368.30063	-450.98331	917.62610	448.24350	-559.51221	901.97681	192.53331	-209.22437	475.66687	405.61346	-777.03259	502.66483	311.76346	-163.70901	122.94547	416.86197	-930.39874	120.84640	149.00827	
267	2.660	-246.22870	1391.74792	589.43475	-364.61978	1608.29553	405.23544	-228.74751	1497.86011	410.27203	-371.51108	1476.05652	590.60120	-307.73492	1387.59668	293.29608	-498.89020	1356.76453	531.89880	-355.06952	1236.90918	432.73724	-501.72433	1373.03210	355.15540	-266.60077	1213.63562	51.74833	-653.12067	1064.68945	619.56738	-277.54691	1023.58246	154.53925	-691.08380	849.60242	734.71832	-330.21005	924.33221	377.99228	-441.67105	919.74646	456.07819	-549.11047	904.92462	201.96265	-201.64714	474.02594	409.24667	-759.93463	503.01248	321.32114	-168.68954	121.35041	418.33154	-924.17206	126.82808	164.24939	
268	2.670	-237.33714	1391.91809	599.45551	-351.22913	1609.38782	416.09662	-218.12039	1500.31885	421.41489	-362.63654	1476.80176	599.92853	-297.44681	1390.06042	302.47250	-489.54501	1358.92480	541.57788	-343.47250	1240.11194	443.49466	-491.04816	1375.73926	364.47934	-254.07529	1216.89807	61.47122	-642.42670	1067.92188	625.08032	-262.43848	1025.97522	165.04184	-686.58606	851.75690	736.72681	-319.63870	927.46960	387.25021	-432.17853	923.64307	464.73590	-538.49292	908.10468	210.23936	-193.59189	473.02615	412.94083	-744.36182	504.91586	331.26529	-172.36494	119.95070	421.92047	-915.35663	132.12859	174.58694	
269	2.680	-228.97647	1393.50525	609.40771	-341.62451	1613.68921	426.64777	-207.69031	1503.24011	432.33371	-353.61896	1478.48267	609.36835	-287.24042	1392.70984	312.22543	-479.44785	1362.13794	550.67377	-332.65567	1243.18311	455.06113	-480.83359	1378.86169	373.74182	-242.03636	1220.65649	70.08054	-633.08344	1071.59607	630.43542	-247.07379	1029.38208	173.85854	-681.56042	853.84442	738.79181	-311.04047	930.99518	397.44070	-422.54883	926.77039	474.67175	-528.39758	911.12164	218.93678	-186.51767	471.12888	415.14667	-727.58960	504.93546	342.48730	-181.05182	114.90757	420.64658	-904.87103	140.70210	186.58643	
270	2.690	-220.83322	1395.64966	620.17181	-331.83633	1617.31299	437.37717	-197.30132	1505.32129	442.02344	-344.57202	1480.61194	619.10419	-277.52292	1395.11951	321.41174	-470.69138	1365.59863	560.11938	-321.69705	1245.90222	465.18246	-471.30078	1382.74194	382.76682	-230.11533	1223.63269	80.35806	-625.08484	1074.70337	634.58356	-231.10672	1033.52148	185.02086	-676.27899	856.15869	740.94983	-301.70560	935.21375	407.37457	-414.07257	930.62909	484.02353	-518.70422	914.69049	227.20448	-179.56198	469.25870	417.39471	-710.79370	504.74518	353.92300	-183.53476	113.58604	423.54092	-892.68835	149.61346	196.72966	
271	2.700	-212.14003	1396.31091	630.74457	-320.39294	1620.15979	447.65381	-187.25732	1507.93518	453.57736	-335.24927	1483.13403	629.23834	-267.83963	1397.75647	330.59933	-461.21906	1369.42065	569.06488	-311.21643	1250.74353	475.34244	-461.28726	1385.71252	391.89688	-219.02992	1228.39380	89.11681	-618.42511	1078.34424	638.81323	-214.16801	1038.31067	193.71898	-672.30219	859.22607	743.37878	-292.94089	939.55426	416.59824	-406.02927	933.32739	492.06448	-508.75882	918.86743	234.98491	-173.62131	467.39395	418.60519	-691.39240	504.55356	364.48355	-184.83145	111.38815	425.61606	-878.75604	158.79491	205.69238	
272	2.710	-204.07076	1399.10205	639.88489	-310.26047	1623.54370	458.08719	-177.84491	1510.76782	464.35071	-326.99240	1485.96277	638.94659	-258.58307	1400.69080	339.95062	-451.96173	1373.07166	577.91010	-301.91025	1254.39197	484.37402	-451.71945	1389.11816	400.98166	-208.12904	1232.62317	98.40426	-612.76141	1081.78113	643.26929	-197.12976	1043.97168	206.67023	-668.50281	861.61322	745.07159	-284.41479	942.83173	424.89618	-396.76932	937.21350	502.57242	-499.46179	923.34747	243.25995	-168.42235	465.43488	419.65652	-672.31183	503.81332	376.38489	-183.57437	109.26888	427.27588	-864.13660	167.48236	214.06911	
273	2.720	-196.28639	1401.45605	649.71716	-300.51138	1626.84753	468.12338	-168.14835	1513.06409	474.82019	-319.05081	1488.83057	648.50317	-249.48419	1404.22900	349.53284	-444.74918	1376.88477	587.27966	-292.60983	1258.64063	494.62262	-443.07755	1393.45435	409.43878	-196.89915	1237.35498	108.74927	-608.37482	1085.67871	647.75922	-178.49048	1049.31958	219.00739	-665.22729	864.96588	746.69110	-276.79156	945.35663	434.00885	-389.06528	940.40381	510.27362	-490.58832	927.57843	250.95276	-163.95116	463.76108	420.16891	-649.11267	501.95370	385.96234	-182.96080	107.73879	429.06241	-849.18372	176.28700	224.61076	
274	2.730	-189.07018	1404.07458	659.92401	-291.00308	1630.14490	478.60272	-159.72142	1516.18933	484.77060	-311.36633	1491.71387	658.03729	-240.33569	1407.82336	358.74973	-437.15384	1381.00391	595.76624	-284.94815	1262.89685	504.26190	-434.22827	1397.49084	418.00873	-186.96066	1241.99866	118.58338	-603.73828	1089.17053	651.52679	-160.90126	1056.46741	230.71773	-663.11560	867.93140	746.37543	-268.30197	949.09344	442.82004	-381.96613	943.17847	518.41437	-481.41571	932.37964	258.60367	-159.67194	462.52640	419.80341	-628.06384	500.71228	398.31860	-179.64925	106.96420	433.18170	-831.88116	186.39088	238.27948	
275	2.740	-181.69249	1406.45825	670.17639	-281.99689	1634.20459	488.93170	-151.12405	1519.91479	495.85034	-304.11148	1494.74255	667.64526	-231.47842	1411.68481	367.99020	-429.67819	1384.88074	604.12415	-276.56378	1267.48926	513.84698	-425.80280	1401.59058	426.60034	-176.26373	1246.73242	129.66707	-600.31641	1093.50916	655.19861	-142.76021	1063.89307	240.86699	-659.90771	871.21411	748.28650	-260.46155	952.79492	451.28009	-373.98935	946.14532	526.36487	-473.12424	936.99829	266.78668	-156.59976	461.74384	420.13571	-606.36438	500.26059	411.72623	-178.50871	105.44591	434.38705	-812.59650	195.15501	253.39600	
276	2.750	-174.08943	1409.42383	679.76337	-272.94455	1637.58862	498.96021	-142.32886	1522.62427	506.68777	-295.86600	1497.91602	677.45752	-222.92561	1415.94580	377.66113	-423.75012	1388.94702	612.87152	-271.40039	1270.39429	522.55225	-417.61887	1405.92615	435.02432	-166.15460	1250.74731	139.81815	-596.44171	1098.11475	658.30237	-125.27150	1071.38574	254.70836	-658.04065	875.29004	748.79346	-252.71648	955.81885	459.51971	-366.53302	951.06348	535.80035	-465.25128	941.75366	275.26349	-155.12444	462.27893	420.37442	-583.37183	499.82147	424.80450	-176.77339	103.77894	434.24335	-790.90631	202.88472	268.24850	
277	2.760	-167.86140	1412.18616	689.26196	-264.50659	1641.81982	509.68237	-134.55183	1526.01990	516.22266	-288.48187	1501.56836	687.53687	-215.02180	1420.38733	387.29138	-418.03915	1394.08557	622.02594	-262.60992	1274.84399	531.66083	-409.64908	1410.05566	443.24954	-155.95198	1255.08203	150.93225	-592.72479	1102.73694	661.74103	-107.46070	1077.70715	265.37344	-655.89197	878.34052	749.26703	-245.25578	959.66534	468.00211	-359.19431	954.49622	543.69800	-457.71640	945.99146	282.66333	-153.89275	462.69223	420.66232	-560.40869	501.51855	439.30676	-173.97588	104.57572	435.34106	-768.44128	210.39925	284.77814	
